{
	"asset":{
		"generator":"Khronos glTF Blender I/O v4.3.47",
		"version":"2.0"
	},
	"scene":0,
	"scenes":[
		{
			"name":"Scene",
			"nodes":[
				0
			]
		}
	],
	"nodes":[
		{
			"mesh":0,
			"name":"Torus"
		}
	],
	"meshes":[
		{
			"name":"Torus",
			"primitives":[
				{
					"attributes":{
						"POSITION":0,
						"NORMAL":1,
						"TEXCOORD_0":2
					},
					"indices":3
				}
			]
		}
	],
	"accessors":[
		{
			"bufferView":0,
			"componentType":5126,
			"count":1584,
			"max":[
				1.6999995708465576,
				1.6980739831924438,
				0.6599999666213989
			],
			"min":[
				-1.692301869392395,
				-1.6980739831924438,
				-0.6599999666213989
			],
			"type":"VEC3"
		},
		{
			"bufferView":1,
			"componentType":5126,
			"count":1584,
			"type":"VEC3"
		},
		{
			"bufferView":2,
			"componentType":5126,
			"count":1584,
			"type":"VEC2"
		},
		{
			"bufferView":3,
			"componentType":5123,
			"count":2376,
			"type":"SCALAR"
		}
	],
	"bufferViews":[
		{
			"buffer":0,
			"byteLength":19008,
			"byteOffset":0,
			"target":34962
		},
		{
			"buffer":0,
			"byteLength":19008,
			"byteOffset":19008,
			"target":34962
		},
		{
			"buffer":0,
			"byteLength":12672,
			"byteOffset":38016,
			"target":34962
		},
		{
			"buffer":0,
			"byteLength":4752,
			"byteOffset":50688,
			"target":34963
		}
	],
	"buffers":[
		{
			"byteLength":55440,
			"uri":"data:application/octet-stream;base64,"
		}
	]
}
